<?xml version="1.0" encoding="utf-8"?>
<!-- Generator: Adobe Illustrator 19.0.0, SVG Export Plug-In . SVG Version: 6.00 Build 0)  -->
<!DOCTYPE svg PUBLIC "-//W3C//DTD SVG 1.1//EN" "http://www.w3.org/Graphics/SVG/1.1/DTD/svg11.dtd">
<svg version="1.1" id="Layer_1" xmlns="http://www.w3.org/2000/svg" xmlns:xlink="http://www.w3.org/1999/xlink" x="0px" y="0px"
	 viewBox="0 0 259.4 259.3" style="enable-background:new 0 0 259.4 259.3;" width="259.4" height="259.4" xml:space="preserve">
<style type="text/css">
	.st0{fill:#FFFFFF;}
	.st1{fill:#B4252D;}
</style>
<circle id="XMLID_1_" class="st0" cx="130" cy="130" r="125"/>
<g id="XMLID_3_">
	<path id="XMLID_15_" class="st1" d="M0,134.1C0,106.9,6.5,80.8,21.6,58c14-21.1,34.2-38,57.5-47.9c50.2-21.3,109.9-8.2,146.6,32
		c37.5,41.1,44.5,103.5,16.8,151.8c-26.5,46.4-80.1,72-132.8,63.9c-53.7-8.3-97.7-51.1-107.5-104.5C1.1,146.9,0.8,140.5,0,134.1
		C0,131.1,0.1,134.8,0,134.1z M138.6,20.1c-3.5-1.9-7.2-3.5-11.2-2.6c-4,0.8-7.6,3.4-11.2,5.2c-7.4,3.6-13.9,2.8-21.8,2.4
		c-8.1-0.5-11.6,3.3-16.5,9.1c-5.6,6.6-11.1,9.2-19.1,11.9c-3.4,1.1-6.9,2.1-9.2,5c-2.1,2.6-2.9,6.1-3.9,9.2
		c-2.3,6.9-4.8,11.9-10.4,16.7c-2.7,2.3-5.9,4.6-8,7.5c-2.2,2.9-2.2,6.3-2,9.8c0.2,3.8,0.9,7.7,0.6,11.6c-0.2,3.7-1.5,6.8-2.9,10.2
		c9.1-2.1,18.9,3.7,18.7,13.8c-0.1,10-9.6,15.7-18.7,13.7c3.1,6.9,3,13.1,2.4,20.5c-0.2,3-0.5,6.2,0.8,9.1c1.4,3.2,4.6,5.5,7.2,7.7
		c4.8,4.1,8.8,8,11,14.1c2.2,6.1,3,13.4,9.4,16.6c6,2.9,12.9,3.5,18.3,7.7c5.2,4,8.2,11.2,14.1,14.1c3.1,1.6,6.7,1.2,10.1,0.9
		c1.7-0.1,3.5-0.1,5.1-0.4c2.5-0.5,1.8-0.1,1.8-2.8c0.1-5.6,3.5-10.9,8.8-13c14.5-6.1,26.4,12.9,15.3,23.6c2.8,3.1,12-2.7,14.5-4
		c5.8-2.9,10.9-4.2,17.4-3.8c5.5,0.4,11.6,1.9,16.3-1.8c2-1.6,3.6-3.7,5.3-5.6c0.6-0.7,2.4-2.1,2.5-3c0.2-1.2-1.1-2.3-1.9-3.5
		c-0.4,7-6.6,5.8-10.2,1.6c-4.1-4.9-2.5-11.3,1.5-15.7c3.9-4.4,9.9-6.9,15.3-3.6c2.1,1.2,4.4,3.7,4.7,6.2c0.4,3-2.3,3.9-4.8,4.4
		c1.2,0.8,2.6,1.9,3.9,2.5c1.5,0.7,1.7,0.6,3.5,0c2.7-0.9,5.5-1.7,8.2-2.7c4.4-1.6,7-3.7,8.8-8.2c1.8-4.4,2.6-9.1,4.8-13.3
		c2.2-4.2,5.7-7.1,9.2-10.2c-14.2-5.8-10.7-27.6,5-27.7c1.9,0,2,0.5,2.8-0.9c0.6-1,0.5-3.2,0.9-4.4c1.2-3.6,3.2-6.9,4.9-10.3
		c1.6-3.2,3-6.4,2.2-10c-0.7-3.5-2.8-6.9-4.4-10c-3.9-7.7-3.8-14-3.2-22.4c0.2-3.1,0.4-6.3-1-9.2c-1.6-3.2-5-5.6-7.7-7.9
		c-6.1-5.2-9.2-10.1-11.7-17.7c-2.2-6.7-4-11-11-13.6c-8.1-3-14.4-4.7-20.2-11.4c-5.7-6.6-10.5-12.4-20.2-10
		c3.2,10.2-5.4,20.8-16.2,18.7C135.4,41.9,131.2,28.3,138.6,20.1C137,19.2,138.6,20.1,138.6,20.1z"/>
	<path id="XMLID_14_" class="st1" d="M97.8,192.4c0,7.8-6.5,14.3-14.3,14.3c-7.6,0-14-6.2-14.3-13.8c-0.3-7.8,6-14.5,13.7-14.8
		C90.9,177.7,97.8,184.4,97.8,192.4z"/>
	<path id="XMLID_13_" class="st1" d="M119.9,143.9c-7.7-0.1-14.1-6.4-14.2-14.2c-0.1-8,6.7-14.7,14.7-14.5
		C138.7,115.8,138.2,144,119.9,143.9C111.7,143.8,127.6,144,119.9,143.9z"/>
	<path id="XMLID_12_" class="st1" d="M165.1,173.7c0.1-18.1,28-18.6,28.6-0.5c0.3,8-6.3,14.9-14.3,14.8
		C171.6,188,165.1,181.5,165.1,173.7C165.1,165.9,165.1,181.6,165.1,173.7z"/>
	<path id="XMLID_11_" class="st1" d="M129.9,60.4c7.8,0,14.3,6.5,14.3,14.3c0,8-6.9,14.6-14.9,14.3
		C111.2,88.4,111.7,60.4,129.9,60.4C137.8,60.4,122.1,60.4,129.9,60.4z"/>
	<path id="XMLID_10_" class="st1" d="M84.2,103.7c0,7.8-6.4,14.3-14.2,14.3c-7.7,0.1-14.3-6.4-14.4-14.1
		c-0.1-7.6,6.1-14.1,13.6-14.5C77.2,89.1,84.2,95.7,84.2,103.7C84.2,111.6,84.2,95.5,84.2,103.7z"/>
	<path id="XMLID_9_" class="st1" d="M216.9,132.7c-18-0.4-18.6-27.8-0.5-28.6c7.7-0.4,14.5,5.8,14.9,13.5
		C231.8,125.7,225.1,132.6,216.9,132.7C208.5,132.5,225.2,132.6,216.9,132.7z"/>
	<path id="XMLID_8_" class="st1" d="M179.1,68.1c-2.6,0.4-5.1,1-6.2-1.9c-0.9-2.4,0.4-5.8,1.8-7.8c3.7-5.3,10.4-5.2,15.7-2.7
		c5.3,2.5,9.3,7.5,7.5,13.6c-0.7,2.3-2.6,5.8-5.2,6.2c-2.7,0.4-3.3-2-4.7-3.6c-0.6,2.5-1,5.9-2.5,8.1c-1.9,2.7-3.7,1-6.3-0.1
		c-2.8-1.2-5.1-1.3-4.2-4.8C175.6,72.6,177.6,70.2,179.1,68.1C178.2,68.2,178.7,68.6,179.1,68.1z"/>
	<path id="XMLID_7_" class="st1" d="M123.8,180c-3.3,0.2-6,0.7-6.2-3.4c-0.1-2.6,1.1-5.4,2.9-7.3c4.2-4.5,10.7-3.8,15.7-1.1
		c4.8,2.7,8.2,7.7,6.5,13.3c-0.6,2.1-2,4.5-3.9,5.6c-3,1.7-4.6-0.7-6-3.1c-1,2.5-1,5.5-2.6,7.7c-2.1,3-4.2,1-7.1-0.3
		c-2.4-1.1-4.3-1.5-3.5-4.4C120.3,184.6,123.4,182.3,123.8,180C123.7,180,123.8,180.1,123.8,180z"/>
	<path id="XMLID_6_" class="st1" d="M164.8,126.4c-4.8,6.6-9.4-0.9-8.9-6.2c0.5-5.9,5.4-9.1,10.8-10.1c5.4-1,11.4,0.4,13.9,5.7
		c2.4,5,0.5,13.5-6.3,9c0.9,2.5,2.2,5.1,2.4,7.8c0.2,3.7-2,3.3-5.2,3.8c-2.7,0.5-4.7,1.7-6-1.1C164.3,132.6,164.8,129.1,164.8,126.4
		C164,127.4,164.8,127.9,164.8,126.4z"/>
	<path id="XMLID_5_" class="st1" d="M75.5,61.1c-1.5-2.1-3.5-4.3-4.4-6.8c-1.1-3.3,0.6-3.5,3.4-4.8c2.3-1.1,4.5-3.1,6.6-1.1
		c2,1.9,2.5,6,3.1,8.5c2.8-7.5,9.1-1.9,10.2,3.3c1.5,6.8-4.1,11.9-10,13.8c-5.1,1.7-10.7,0.7-13.6-4.1C68,65.4,68.8,59,75.5,61.1
		C75.3,60.8,74.3,60.7,75.5,61.1z"/>
	<path id="XMLID_4_" class="st1" d="M59.8,149.4c0.5-2.6,0.9-6,2.5-8.1c1.9-2.5,3.6-1,6.2,0.2c2.4,1,4.9,1.2,4.4,4.2
		c-0.5,2.8-2.8,5.5-4.4,7.8c7.3-2.6,7.6,5.1,4.4,9.6c-3.4,4.8-9.4,5.1-14.5,3.1c-5.2-2-9.7-6.4-9-12.3
		C50.2,148.2,56,142.3,59.8,149.4C59.9,148.7,59.2,148.3,59.8,149.4z"/>
</g>
</svg>
